<?xml version="1.0" encoding="utf-8"?>
<!-- Generator: Adobe Illustrator 26.0.0, SVG Export Plug-In . SVG Version: 6.00 Build 0)  -->
<svg version="1.1" id="Livello_1" xmlns="http://www.w3.org/2000/svg" xmlns:xlink="http://www.w3.org/1999/xlink" x="0px" y="0px"
	 viewBox="0 0 787.5 217.5" style="enable-background:new 0 0 787.5 217.5;" xml:space="preserve">
<style type="text/css">
	.st0{enable-background:new    ;}
	.st1{fill:#FFFFFF;}
</style>
<g class="st0">
	<path class="st1" d="M41.3,60.2v30.6h67.4v28.7H41.3v30.6h76.9v28.7H12.6V31.5h105.6v28.7H41.3z"/>
	<path class="st1" d="M166.9,69.7v5.1l20.7-11.9c14.5-1.8,28.2,4.8,37.9,15.4c31.2-34,87.3-10.1,87.3,35.1v65.4h-28.7v-65.4
		c0-29.2-44.2-29.3-44.3,0v65.4h-28.7v-65.4c0-11.4-8.8-20.9-19.9-22c-0.7-0.1-1.5-0.1-2.2-0.1c-12.2,0-22.1,10-22.1,22.1v65.4
		h-28.7V64.2h28.7L166.9,69.7L166.9,69.7z"/>
	<path class="st1" d="M447,121.5c0,3.5-0.3,6.9-0.9,10.2h-86.9c4.2,11.8,15.4,20.3,28.7,20.3c10,0,18.9-4.8,24.4-12.3h31.8
		c-7.7,23.8-30,40.9-56.3,40.9c-32.6,0-59.1-26.5-59.1-59.1c0-32.6,26.5-59.1,59.1-59.1S447,88.8,447,121.5z M414.5,106.7
		c-5.2-9.3-15.2-15.6-26.6-15.6s-21.4,6.3-26.6,15.6H414.5z"/>
	<path class="st1" d="M514.6,62.9c2.4-0.3,4.8-0.5,7.2-0.5c8,0,15.7,1.7,22.6,4.7l-5.6,29.8c-17.7-13.7-44.9-5.3-44.9,22.1v59.8
		h-28.7V64.2h28.7v10.6L514.6,62.9z"/>
	<path class="st1" d="M592.8,133.3c-8.9-3.9-23.9-10.2-29.9-17.7c-5.6-7-8.2-15.9-6.4-24.8c4.2-20.1,23.4-28.4,42.3-28.4
		c16.8,0,32.2,7.8,42.8,20.8l-22.2,19.1c-5.3-6.7-11.8-11.4-20.5-12.1c-3-0.3-6.4,0.1-9,1.5c-1.3,0.7-2.9,1.9-3.2,3.5
		c-0.8,4.7,13.7,10.6,17.2,12.3c17.8,8.8,43.7,16.9,40.3,42.8c-2.8,21.5-25.4,30.5-44.5,30.5c-17.4,0-35.4-9.4-46.3-22.7l22-19.4
		c7.5,7.6,18,15.3,29.2,14.2c2.5-0.2,8.5-1.4,9.1-4.5C614.4,143.3,596.7,135.3,592.8,133.3z"/>
	<path class="st1" d="M716.4,62.4c3.6,0,7.1,0.3,10.5,0.9l19.9,11.5V64.2h28.7v114.5h-28.7v-10.6L727,179.7
		c-3.4,0.6-6.9,0.9-10.5,0.9c-32.6,0-59.1-26.5-59.1-59.1C657.3,88.8,683.8,62.4,716.4,62.4z M716.4,151.9
		c16.8,0,30.4-13.6,30.4-30.4c0-16.8-13.6-30.4-30.4-30.4S686,104.7,686,121.5C686,138.3,699.6,151.9,716.4,151.9z"/>
</g>
</svg>
